<svg width="34" height="34" viewBox="0 0 34 34" fill="none" xmlns="http://www.w3.org/2000/svg">
<path d="M29.1582 26.8693C27.8297 28.5055 26.1848 29.8765 24.3151 30.906C23.8746 30.211 23.4809 29.4915 23.0566 28.8799C23.0303 28.8424 22.9955 28.8113 22.9548 28.789C22.9141 28.7666 22.8686 28.7536 22.8219 28.7509C22.7752 28.7482 22.7284 28.7559 22.6853 28.7735C22.6421 28.791 22.6037 28.8179 22.573 28.8521C21.9079 29.5472 21.3739 30.0876 20.822 30.5898C20.1029 31.1598 18.9739 32.0078 17.6544 32.9305C17.1522 32.9768 16.644 33 16.1299 33C13.8016 33.0027 11.4992 32.529 9.37393 31.6098C11.756 30.1223 14.111 28.5601 16.7915 26.1743C17.3882 25.6715 17.9331 25.114 18.4184 24.5095C18.4639 24.4491 18.4839 24.3743 18.4746 24.3001C18.4653 24.226 18.4272 24.158 18.3681 24.1098C15.2364 21.5624 14.6144 21.3121 13.2373 20.4971C13.1714 20.4579 13.0925 20.4441 13.0165 20.4586C12.9405 20.4731 12.873 20.5148 12.8274 20.5753C10.5569 23.611 7.95825 26.4042 5.07551 28.9077C3.33688 27.3997 1.94797 25.5532 1 23.4895C3.22382 21.3295 5.64899 18.3997 5.65977 15.9322C5.67056 13.4646 4.15865 10.3715 3.3227 6.86131C4.91062 4.98614 6.9174 3.48305 9.19236 2.46489C9.17045 2.52038 9.16669 2.58104 9.18157 2.63866C9.38292 3.39109 9.61483 4.30513 9.86652 5.37904C10.3771 7.80315 10.6611 9.38794 10.7888 10.1577C10.7984 10.2111 10.8228 10.2609 10.8596 10.3017C10.8963 10.3426 10.9439 10.373 10.9972 10.3896C11.0505 10.4063 11.1074 10.4085 11.162 10.3961C11.2165 10.3837 11.2665 10.3572 11.3065 10.3194C12.3492 9.32365 15.071 6.37648 16.8634 1.24154C16.8776 1.20185 16.8825 1.15961 16.8778 1.11785C16.8732 1.0761 16.859 1.03585 16.8364 1C19.4969 1.10392 22.0915 1.8302 24.3978 3.11653C24.3503 3.14861 24.3135 3.19327 24.2917 3.24513C23.0836 6.12799 21.3578 9.76677 17.64 14.5889C17.6139 14.6232 17.5956 14.6623 17.586 14.7038C17.5765 14.7454 17.5761 14.7883 17.5847 14.83C17.5933 14.8717 17.6108 14.9112 17.6362 14.946C17.6615 14.9808 17.694 15.0101 17.7317 15.032C19.3497 15.9565 20.0688 16.4934 22.7384 18.9228C22.7989 18.9769 22.8789 19.0059 22.9612 19.0037C23.0436 19.0014 23.1217 18.968 23.1789 18.9106C24.2416 17.7989 25.2294 16.6223 26.1362 15.3883C26.1547 15.3669 26.1783 15.3502 26.205 15.3395C26.2316 15.3288 26.2605 15.3245 26.2892 15.3269C26.318 15.3293 26.3457 15.3383 26.37 15.3532C26.3944 15.3681 26.4147 15.3885 26.4292 15.4126L29.0449 20.6588C29.0687 20.7063 29.0787 20.7592 29.0739 20.8118C29.0692 20.8644 29.0499 20.9148 29.018 20.9576C28.7627 21.3052 28.0544 22.2627 27.1231 23.4582C27.0862 23.5091 27.0663 23.5698 27.0663 23.632C27.0663 23.6942 27.0862 23.7549 27.1231 23.8057C27.2346 23.9639 27.3461 24.1238 27.4539 24.2871C28.0556 25.2116 28.6237 26.0723 29.1582 26.8693Z" stroke="#A0A3A3" stroke-width="0.793821" stroke-miterlimit="10"/>
<path d="M32.6591 16.059C32.6292 16.0796 32.6035 16.1056 32.5836 16.1355L31.3252 17.9357C31.3071 17.9577 31.2837 17.9751 31.2572 17.9864C31.2306 17.9977 31.2016 18.0027 31.1726 18.0008C31.1436 17.9989 31.1155 17.9903 31.0908 17.9756C31.066 17.961 31.0453 17.9407 31.0304 17.9166L28.4632 12.8269C28.4377 12.7754 28.4264 12.7184 28.4305 12.6614C28.4346 12.6045 28.4539 12.5495 28.4865 12.5019L30.6852 9.3584C31.8474 11.4235 32.5216 13.7119 32.6591 16.059V16.059Z" stroke="#A0A3A3" stroke-width="0.793821" stroke-miterlimit="10"/>
<path d="M29.4933 26.8693C28.1647 28.5055 26.5199 29.8765 24.6501 30.906C24.2097 30.211 23.816 29.4915 23.3917 28.8799C23.3656 28.8428 23.3312 28.812 23.291 28.7897C23.2507 28.7675 23.2058 28.7543 23.1596 28.7513C23.1133 28.7483 23.067 28.7555 23.024 28.7723C22.9811 28.7892 22.9427 28.8153 22.9117 28.8486C22.2465 29.5437 21.7126 30.0841 21.1607 30.5863C20.4416 31.1563 19.3126 32.0043 17.993 32.927C17.4921 32.9733 16.9839 32.9965 16.4686 32.9965C14.1403 32.9993 11.8378 32.5255 9.7126 31.6063C12.0946 30.1189 14.4497 28.5567 17.1301 26.1708C17.7238 25.6676 18.2656 25.1101 18.7481 24.506C18.7936 24.4456 18.8136 24.3708 18.8043 24.2966C18.7949 24.2225 18.7569 24.1545 18.6978 24.1064C15.5769 21.5537 14.9548 21.3052 13.585 20.4902C13.519 20.4509 13.4402 20.4371 13.3642 20.4516C13.2882 20.4661 13.2206 20.5078 13.1751 20.5684C10.9045 23.604 8.3059 26.3972 5.42316 28.9007C3.68535 27.3947 2.29649 25.5507 1.34766 23.4895C3.57148 21.3295 5.99665 18.3997 6.00743 15.9322C6.01822 13.4646 4.50631 10.3715 3.67036 6.86131C5.25828 4.98614 7.26506 3.48305 9.54002 2.46489C9.51811 2.52038 9.51434 2.58104 9.52923 2.63866C9.73058 3.39109 9.96249 4.30513 10.2142 5.37904C10.7247 7.80315 11.0088 9.38794 11.1364 10.1577C11.146 10.2111 11.1705 10.2609 11.2072 10.3017C11.244 10.3426 11.2915 10.373 11.3448 10.3896C11.3981 10.4063 11.4551 10.4085 11.5096 10.3961C11.5641 10.3837 11.6141 10.3572 11.6542 10.3194C12.6969 9.32365 15.4187 6.37648 17.211 1.24154C17.2252 1.20185 17.2302 1.15961 17.2255 1.11785C17.2208 1.0761 17.2067 1.03585 17.1841 1C19.8402 1.10827 22.4297 1.83687 24.731 3.12349C24.6836 3.15557 24.6467 3.20022 24.625 3.25207C23.4169 6.13494 21.691 9.77371 17.9733 14.5959C17.9472 14.6301 17.9288 14.6693 17.9193 14.7108C17.9098 14.7523 17.9093 14.7953 17.918 14.837C17.9266 14.8787 17.9441 14.9182 17.9694 14.953C17.9947 14.9877 18.0273 15.017 18.065 15.039C19.6829 15.9635 20.402 16.5004 23.0717 18.9297C23.1321 18.9839 23.2121 19.0129 23.2945 19.0106C23.3769 19.0083 23.455 18.9749 23.5121 18.9176C24.5749 17.8058 25.5627 16.6293 26.4695 15.3952C26.488 15.3739 26.5116 15.3571 26.5382 15.3465C26.5649 15.3358 26.5938 15.3315 26.6225 15.3338C26.6512 15.3362 26.679 15.3453 26.7033 15.3602C26.7277 15.3751 26.748 15.3955 26.7625 15.4195L29.3692 20.6588C29.3929 20.7063 29.403 20.7592 29.3982 20.8118C29.3935 20.8644 29.3741 20.9148 29.3423 20.9576C29.087 21.3052 28.3787 22.2627 27.4474 23.4582C27.4091 23.5082 27.3877 23.5684 27.3861 23.6306C27.3845 23.6928 27.4028 23.754 27.4384 23.8057C27.5499 23.9639 27.6614 24.1238 27.7692 24.2871C28.3805 25.2116 28.9551 26.0723 29.4933 26.8693Z" fill="#A0A3A3"/>
<path d="M32.999 16.059C32.969 16.0796 32.9434 16.1056 32.9235 16.1355L31.665 17.9357C31.6469 17.9577 31.6236 17.9751 31.597 17.9864C31.5704 17.9977 31.5414 18.0027 31.5124 18.0008C31.4835 17.9989 31.4554 17.9903 31.4306 17.9756C31.4058 17.961 31.3851 17.9407 31.3702 17.9166L28.803 12.8269C28.7775 12.7754 28.7663 12.7184 28.7704 12.6614C28.7744 12.6045 28.7938 12.5495 28.8264 12.5019L31.0214 9.3584C32.1849 11.4232 32.8603 13.7116 32.999 16.059Z" fill="#A0A3A3"/>
</svg>
