<svg width="129" height="130" viewBox="0 0 129 130" fill="none" xmlns="http://www.w3.org/2000/svg">
<path d="M27.5588 11.4509C28.5136 9.80594 30.1656 8.68531 32.0471 8.40623L83.2059 0.817704C85.0874 0.538625 86.9935 1.13148 88.3848 2.42845L126.215 37.6947C127.606 38.9917 128.331 40.8516 128.184 42.748L124.199 94.3128C124.052 96.2092 123.05 97.9356 121.476 99.0033L78.6759 128.037C77.1019 129.105 75.1273 129.398 73.3111 128.833L23.926 113.473C22.1098 112.908 20.6496 111.547 19.9589 109.775L1.17672 61.5873C0.485979 59.8151 0.639817 57.8249 1.59469 56.1799L27.5588 11.4509Z" stroke="#288E9C" stroke-width="1.5" stroke-linejoin="round"/>
</svg>
