<svg width="29" height="32" viewBox="0 0 29 32" fill="none" xmlns="http://www.w3.org/2000/svg">
<path d="M28.4933 25.8693C27.1647 27.5055 25.5199 28.8765 23.6501 29.906C23.2097 29.211 22.816 28.4915 22.3917 27.8799C22.3656 27.8428 22.3312 27.812 22.291 27.7897C22.2507 27.7675 22.2058 27.7543 22.1596 27.7513C22.1133 27.7483 22.067 27.7555 22.024 27.7723C21.9811 27.7892 21.9427 27.8153 21.9117 27.8486C21.2465 28.5437 20.7126 29.0841 20.1607 29.5863C19.4416 30.1563 18.3126 31.0043 16.993 31.927C16.4921 31.9733 15.9839 31.9965 15.4686 31.9965C13.1403 31.9993 10.8378 31.5255 8.7126 30.6063C11.0946 29.1189 13.4497 27.5567 16.1301 25.1708C16.7238 24.6676 17.2656 24.1101 17.7481 23.506C17.7936 23.4456 17.8136 23.3708 17.8043 23.2966C17.7949 23.2225 17.7569 23.1545 17.6978 23.1064C14.5769 20.5537 13.9548 20.3052 12.585 19.4902C12.519 19.4509 12.4402 19.4371 12.3642 19.4516C12.2882 19.4661 12.2206 19.5078 12.1751 19.5684C9.90454 22.604 7.3059 25.3972 4.42316 27.9007C2.68535 26.3947 1.29649 24.5507 0.347656 22.4895C2.57148 20.3295 4.99665 17.3997 5.00743 14.9322C5.01822 12.4646 3.50631 9.37149 2.67036 5.86131C4.25828 3.98614 6.26506 2.48305 8.54002 1.46489C8.51811 1.52038 8.51434 1.58104 8.52923 1.63866C8.73058 2.39109 8.96249 3.30513 9.21417 4.37904C9.72474 6.80315 10.0088 8.38794 10.1364 9.15775C10.146 9.21108 10.1705 9.26087 10.2072 9.30174C10.244 9.3426 10.2915 9.37299 10.3448 9.38963C10.3981 9.40626 10.4551 9.40851 10.5096 9.39612C10.5641 9.38374 10.6141 9.3572 10.6542 9.31936C11.6969 8.32365 14.4187 5.37648 16.211 0.241542C16.2252 0.201848 16.2302 0.15961 16.2255 0.117853C16.2208 0.0760962 16.2067 0.0358529 16.1841 0C18.8402 0.108267 21.4297 0.836873 23.731 2.12349C23.6836 2.15557 23.6467 2.20022 23.625 2.25207C22.4169 5.13494 20.691 8.77371 16.9733 13.5959C16.9472 13.6301 16.9288 13.6693 16.9193 13.7108C16.9098 13.7523 16.9093 13.7953 16.918 13.837C16.9266 13.8787 16.9441 13.9182 16.9694 13.953C16.9947 13.9877 17.0273 14.017 17.065 14.039C18.6829 14.9635 19.402 15.5004 22.0717 17.9297C22.1321 17.9839 22.2121 18.0129 22.2945 18.0106C22.3769 18.0083 22.455 17.9749 22.5121 17.9176C23.5749 16.8058 24.5627 15.6293 25.4695 14.3952C25.488 14.3739 25.5116 14.3571 25.5382 14.3465C25.5649 14.3358 25.5938 14.3315 25.6225 14.3338C25.6512 14.3362 25.679 14.3453 25.7033 14.3602C25.7277 14.3751 25.748 14.3955 25.7625 14.4195L28.3692 19.6588C28.3929 19.7063 28.403 19.7592 28.3982 19.8118C28.3935 19.8644 28.3741 19.9148 28.3423 19.9576C28.087 20.3052 27.3787 21.2627 26.4474 22.4582C26.4091 22.5082 26.3877 22.5684 26.3861 22.6306C26.3845 22.6928 26.4028 22.754 26.4384 22.8057C26.5499 22.9639 26.6614 23.1238 26.7692 23.2871C27.3805 24.2116 27.9551 25.0723 28.4933 25.8693Z" fill="#A0A3A3"/>
</svg>
